Coordinates
version=1
nRows=16
nColumns=63
inDegrees=yes

Units are S.I. units (second, meters, Newtons, ...)
If the header above contains a line with 'inDegrees', this indicates whether rotational values are in degrees (yes) or radians (no).

endheader
time	pelvis_tilt	pelvis_list	pelvis_rotation	pelvis_tx	pelvis_ty	pelvis_tz	hip_flexion_r	hip_adduction_r	hip_rotation_r	knee_angle_r	knee_angle_r_beta	ankle_angle_r	subtalar_angle_r	mtp_angle_r	hip_flexion_l	hip_adduction_l	hip_rotation_l	knee_angle_l	knee_angle_l_beta	ankle_angle_l	subtalar_angle_l	mtp_angle_l	L5_S1_Flex_Ext	L5_S1_Lat_Bending	L5_S1_axial_rotation	L4_L5_Flex_Ext	L4_L5_Lat_Bending	L4_L5_axial_rotation	L3_L4_Flex_Ext	L3_L4_Lat_Bending	L3_L4_axial_rotation	L2_L3_Flex_Ext	L2_L3_Lat_Bending	L2_L3_axial_rotation	L1_L2_Flex_Ext	L1_L2_Lat_Bending	L1_L2_axial_rotation	L1_T12_Flex_Ext	L1_T12_Lat_Bending	L1_T12_axial_rotation	Abs_r3	Abs_r2	Abs_r1	Abs_t1	Abs_t2	neck_flexion	neck_bending	neck_rotation	arm_flex_r	arm_add_r	arm_rot_r	elbow_flex_r	pro_sup_r	wrist_flex_r	wrist_dev_r	arm_flex_l	arm_add_l	arm_rot_l	elbow_flex_l	pro_sup_l	wrist_flex_l	wrist_dev_l
5.084746	5.212607	0.520315	83.726692	0.331395	1.077242	0.355461	-7.645168	-1.317514	1.463561	5.148102	0.089851	26.812388	7.942864	0.000000	-9.667088	0.179173	2.056499	1.361203	0.023757	23.198195	-14.849619	0.000000	-0.010241	0.309553	1.129110	-0.019018	0.411706	1.199679	-0.016824	0.752647	1.199679	-0.011704	0.752647	0.987971	-0.009509	0.631241	0.917402	-0.005851	0.479498	0.846832	-0.073147	3.501726	6.279771	0.000000	0.000000	21.814814	6.873883	5.677141	27.459304	-11.662116	12.362816	109.585249	87.918599	-5.961353	-1.527028	34.339766	-13.089647	22.834521	116.898849	79.565752	1.669776	2.948400
5.101695	5.161046	0.399775	83.455732	0.332016	1.076579	0.354812	-7.634967	-1.363147	2.078097	4.990497	0.087101	26.857226	7.349504	0.000000	-9.625286	0.253848	1.810367	1.316288	0.022974	23.244390	-14.878654	0.000000	-0.005320	0.298411	1.139355	-0.009880	0.396886	1.210564	-0.008740	0.725556	1.210564	-0.006080	0.725556	0.996935	-0.004940	0.608519	0.925726	-0.003040	0.462238	0.854516	-0.038000	3.375682	6.336748	0.000000	0.000000	22.047092	7.002182	5.687821	25.986624	-11.924013	13.188817	108.817678	87.057498	-3.222300	1.387874	30.789704	-13.389755	22.708245	115.719113	78.186564	-0.590608	4.939345
5.118644	5.069582	0.249561	83.222638	0.332640	1.075702	0.354312	-7.576481	-1.439146	2.585330	4.871802	0.085029	26.950845	6.829366	0.000000	-9.531502	0.358942	1.705569	1.274726	0.022248	23.288384	-15.048969	0.000000	0.003892	0.280843	1.140483	0.007227	0.373521	1.211763	0.006394	0.682841	1.211763	0.004448	0.682841	0.997923	0.003614	0.572695	0.926643	0.002224	0.435025	0.855362	0.027797	3.176950	6.343026	0.000000	0.000000	22.366787	7.132849	5.626580	24.327129	-12.193204	14.059773	107.947533	85.884845	-0.624972	4.416401	27.255851	-13.724812	22.520368	113.936365	77.219966	-2.466321	6.920205
5.135593	4.939294	0.072069	82.950854	0.333317	1.074598	0.354031	-7.434873	-1.557254	3.007283	4.836846	0.084419	27.127504	6.456655	0.000000	-9.378753	0.502214	1.514740	1.257402	0.021946	23.404461	-15.141137	0.000000	0.015757	0.257447	1.153945	0.029263	0.342405	1.226067	0.025888	0.625958	1.226067	0.018009	0.625958	1.009702	0.014632	0.524987	0.937581	0.009004	0.398786	0.865459	0.112554	2.912297	6.417898	0.000000	0.000000	22.784267	7.242283	5.449273	22.435798	-12.454074	14.852992	107.063405	84.557485	1.758144	7.475649	23.808051	-14.060413	22.282180	111.580287	76.691121	-3.915234	8.689443
5.152542	4.774500	-0.134270	82.713073	0.333963	1.073265	0.353984	-7.230860	-1.700111	3.384679	4.850066	0.084650	27.366434	6.113535	0.000000	-9.169609	0.670325	1.418944	1.244154	0.021715	23.562021	-15.290951	0.000000	0.030157	0.228350	1.163311	0.056005	0.303705	1.236018	0.049546	0.555209	1.236018	0.034467	0.555209	1.017897	0.028004	0.465650	0.945190	0.017232	0.353713	0.872483	0.215412	2.583136	6.469985	0.000000	0.000000	23.271092	7.370477	5.181412	20.337386	-12.723788	15.568770	106.168590	83.139707	3.959982	10.391382	20.459383	-14.394756	21.970097	108.776390	76.606192	-4.958949	10.247516
5.169492	4.573267	-0.365685	82.479627	0.334559	1.071733	0.354264	-6.933270	-1.878998	3.639057	4.956602	0.086509	27.703814	5.944813	0.000000	-8.894133	0.868087	1.339676	1.253685	0.021881	23.781027	-15.432345	0.000000	0.045102	0.193920	1.187463	0.083759	0.257914	1.261679	0.074098	0.471497	1.261679	0.051547	0.471497	1.039030	0.041882	0.395442	0.964813	0.025771	0.300382	0.890597	0.322160	2.193663	6.604311	0.000000	0.000000	23.811719	7.462781	4.750011	18.006715	-13.045311	16.179060	105.365247	81.655229	5.656664	13.134983	17.338069	-14.717976	21.688824	105.545793	76.955984	-5.422357	11.519408
5.186441	4.355285	-0.630189	82.217441	0.335103	1.070050	0.354874	-6.531190	-2.077713	3.841048	5.151646	0.089913	28.116249	5.908088	0.000000	-8.553088	1.081612	1.220064	1.277850	0.022303	24.059541	-15.536741	0.000000	0.061589	0.157491	1.234961	0.114376	0.209464	1.312146	0.101184	0.382925	1.312146	0.070390	0.382925	1.080590	0.057191	0.321157	1.003405	0.035192	0.243954	0.926220	0.439921	1.781575	6.868480	0.000000	0.000000	24.360911	7.505543	4.174154	15.485115	-13.449064	16.656428	104.638447	80.146770	7.039027	15.581337	14.466190	-15.054076	21.556559	101.972546	77.729997	-5.644550	12.308764
5.203390	4.126297	-0.921812	81.977138	0.335525	1.068288	0.355832	-6.041630	-2.283286	3.964349	5.421867	0.094629	28.576242	5.978557	0.000000	-8.143891	1.297491	1.128297	1.329902	0.023211	24.375814	-15.632680	0.000000	0.078146	0.119935	1.299904	0.145126	0.159513	1.381148	0.128387	0.291610	1.381148	0.089313	0.291610	1.137416	0.072567	0.244571	1.056172	0.044653	0.185779	0.974928	0.558192	1.356728	7.229674	0.000000	0.000000	24.905789	7.484997	3.453125	12.858146	-13.932375	17.012331	103.959574	78.759561	8.029728	17.724506	11.916400	-15.409199	21.716424	98.090915	78.875092	-5.694942	12.374682
5.220339	3.900281	-1.234107	81.695883	0.335868	1.066506	0.357072	-5.466038	-2.496228	4.026217	5.772465	0.100749	29.069961	6.207370	0.000000	-7.690582	1.515189	0.983832	1.396046	0.024366	24.718467	-15.708600	0.000000	0.094484	0.083975	1.390072	0.175466	0.111687	1.476951	0.155227	0.204178	1.476951	0.107985	0.204178	1.216313	0.087738	0.171243	1.129433	0.053988	0.130078	1.042554	0.674887	0.949947	7.731163	0.000000	0.000000	25.400750	7.381597	2.653317	10.243532	-14.499980	17.333736	103.312605	77.466702	8.455199	19.605509	9.652348	-15.815986	22.141827	94.131763	80.302886	-5.780317	12.021080
5.237288	3.669208	-1.556342	81.361901	0.336179	1.064773	0.358530	-4.819775	-2.726406	4.001962	6.195531	0.108132	29.581561	6.643217	0.000000	-7.209186	1.743973	0.765197	1.473965	0.025726	25.060144	-15.762542	0.000000	0.110781	0.048322	1.499803	0.205732	0.064268	1.593540	0.182003	0.117489	1.593540	0.126612	0.117489	1.312327	0.102872	0.098537	1.218590	0.063301	0.074850	1.124852	0.791301	0.546622	8.341452	0.000000	0.000000	25.815015	7.221057	1.811095	7.775438	-15.093558	17.694750	102.578902	76.242454	8.245987	21.138427	7.641323	-16.243677	22.662647	90.250789	81.868926	-5.425069	11.532092
5.254237	3.426069	-1.862699	80.985477	0.336480	1.063158	0.360155	-4.142041	-2.979811	3.878667	6.667740	0.116374	30.095173	7.287256	0.000000	-6.729321	1.989928	0.482061	1.558507	0.027201	25.379551	-15.803800	0.000000	0.123289	0.010620	1.630261	0.228960	0.014125	1.732152	0.202552	0.025822	1.732152	0.140907	0.025822	1.426478	0.114486	0.021657	1.324587	0.070447	0.016451	1.222696	0.880642	0.120138	9.067022	0.000000	0.000000	26.196670	7.006092	0.827160	5.505499	-15.621846	18.014876	101.718573	75.449990	7.364273	22.295194	5.882449	-16.663344	23.276630	86.586888	83.576831	-4.733944	10.881607
5.271186	3.183466	-2.157983	80.566748	0.336793	1.061668	0.361820	-3.449643	-3.240251	3.699411	7.162406	0.125008	30.595294	8.066197	0.000000	-6.261573	2.240122	0.149118	1.640500	0.028632	25.668072	-15.833242	0.000000	0.134391	-0.024695	1.759487	0.249577	-0.032845	1.869455	0.220790	-0.060044	1.869455	0.153595	-0.060044	1.539551	0.124795	-0.050359	1.429583	0.076791	-0.038253	1.319615	0.959938	-0.279359	9.785738	0.000000	0.000000	26.518974	6.815832	0.060094	3.579327	-16.038966	18.447126	100.680624	74.827575	5.875973	23.332907	4.265080	-17.163578	23.841103	83.470785	85.074218	-3.870156	10.515153
5.288136	2.941566	-2.426880	80.112104	0.337129	1.060331	0.363439	-2.772772	-3.508175	3.487382	7.662495	0.133736	31.081129	8.941005	0.000000	-5.828892	2.496194	-0.230979	1.714937	0.029931	25.912377	-15.861072	0.000000	0.143198	-0.058458	1.886774	0.265932	-0.077750	2.004697	0.235260	-0.142136	2.004697	0.163661	-0.142136	1.650927	0.132973	-0.119208	1.533004	0.081823	-0.090552	1.415081	1.022847	-0.661294	10.493671	0.000000	0.000000	26.815886	6.638220	-0.570193	2.011019	-16.350516	19.000018	99.466199	74.214735	3.883758	24.128941	2.739921	-17.689379	24.239347	81.025299	86.495576	-2.713680	10.425490
5.305085	2.712943	-2.657941	79.645513	0.337466	1.059172	0.364928	-2.149813	-3.768836	3.285203	8.132258	0.141935	31.526617	9.815501	0.000000	-5.452032	2.745774	-0.632919	1.776266	0.031002	26.113746	-15.893196	0.000000	0.148864	-0.089204	2.006675	0.276456	-0.118641	2.132092	0.244569	-0.216891	2.132092	0.170137	-0.216891	1.755840	0.138235	-0.181905	1.630423	0.085061	-0.138177	1.505006	1.063322	-1.009094	11.160523	0.000000	0.000000	27.097285	6.489670	-1.066581	0.797666	-16.605245	19.710702	98.152019	73.475323	1.589438	24.702417	1.269880	-18.222179	24.395048	79.358099	87.907566	-1.236412	10.618133
5.322034	2.503519	-2.852298	79.186122	0.337799	1.058211	0.366207	-1.600860	-4.013567	3.119467	8.543839	0.149118	31.923789	10.628101	0.000000	-5.136108	2.979580	-1.026073	1.824248	0.031839	26.260385	-15.924033	0.000000	0.152963	-0.116309	2.117772	0.284067	-0.154691	2.250132	0.251303	-0.282793	2.250132	0.174821	-0.282793	1.853050	0.142041	-0.237177	1.720689	0.087403	-0.180162	1.588329	1.092599	-1.315708	11.778411	0.000000	0.000000	27.353418	6.351768	-1.464758	-0.086037	-16.884194	20.637905	96.840923	72.469200	-0.781542	25.048108	-0.149876	-18.757457	24.306462	78.515810	89.234751	0.502520	11.056518
5.338983	2.321174	-3.007491	78.768756	0.338080	1.057481	0.367250	-1.144182	-4.231678	3.001613	8.878647	0.154962	32.249062	11.318261	0.000000	-4.883966	3.187903	-1.396933	1.858380	0.032435	26.349913	-15.950975	0.000000	0.154979	-0.138815	2.214616	0.287812	-0.184624	2.353030	0.254616	-0.337515	2.353030	0.177126	-0.337515	1.937789	0.143914	-0.283072	1.799376	0.088555	-0.215025	1.660962	1.107002	-1.570306	12.317032	0.000000	0.000000	27.577127	6.209063	-1.783756	-0.641557	-17.265474	21.811655	95.628910	71.143818	-2.898192	25.250753	-1.488169	-19.275993	23.994703	78.474167	90.251319	2.442344	11.746237
